<?xml version="1.0" encoding="us-ascii" standalone="no"?><svg xmlns="http://www.w3.org/2000/svg" xmlns:xlink="http://www.w3.org/1999/xlink" contentStyleType="text/css" height="808px" preserveAspectRatio="none" style="width:620px;height:808px;background:#FFFFFF;" version="1.1" viewBox="0 0 620 808" width="620px" zoomAndPan="magnify"><defs/><g><!--class invoice--><g id="elem_invoice"><rect codeLine="5" fill="#F1F1F1" height="129.4844" id="invoice" rx="2.5" ry="2.5" style="stroke:#181818;stroke-width:0.5;" width="215" x="398.5" y="434"/><ellipse cx="476.25" cy="450" fill="#ADD1B2" rx="11" ry="11" style="stroke:#181818;stroke-width:1.0;"/><path d="M475.0469,450.875 L476.5,450.875 L476.5,450.9844 C476.5,451.3906 476.5313,451.5469 476.6094,451.7031 C476.7656,451.9531 477.0469,452.1094 477.3438,452.1094 C477.5938,452.1094 477.8594,451.9688 478.0156,451.75 C478.1406,451.5938 478.1719,451.4375 478.1719,450.9844 L478.1719,449.0625 C478.1719,448.9063 478.1719,448.8594 478.1563,448.7031 C478.0938,448.2344 477.7813,447.9219 477.3281,447.9219 C477.0781,447.9219 476.8125,448.0625 476.6406,448.2813 C476.5313,448.4531 476.5,448.6094 476.5,449.0625 L476.5,449.1875 L475.0469,449.1875 L475.0469,446.7813 L479.0313,446.7813 L479.0313,447.6406 C479.0313,448.0469 479.0625,448.2188 479.1406,448.375 C479.3125,448.625 479.5938,448.7813 479.875,448.7813 C480.1406,448.7813 480.4063,448.6406 480.5781,448.4219 C480.6875,448.25 480.7188,448.1094 480.7188,447.6406 L480.7188,445.0938 L473.0938,445.0938 C472.6563,445.0938 472.5313,445.1094 472.375,445.2031 C472.125,445.3594 471.9688,445.6563 471.9688,445.9375 C471.9688,446.2188 472.1094,446.4688 472.3281,446.6406 C472.4844,446.75 472.6719,446.7813 473.0938,446.7813 L473.3438,446.7813 L473.3438,453.2969 L473.0938,453.2969 C472.6875,453.2969 472.5313,453.3125 472.375,453.4219 C472.125,453.5938 471.9688,453.8594 471.9688,454.1563 C471.9688,454.4219 472.1094,454.6719 472.3281,454.8281 C472.4688,454.9531 472.7031,455 473.0938,455 L481.0938,455 L481.0938,452.4219 C481.0938,451.9844 481.0625,451.8438 480.9844,451.6875 C480.8125,451.4375 480.5313,451.2813 480.25,451.2813 C479.9844,451.2813 479.7188,451.3906 479.5469,451.6406 C479.4375,451.7969 479.4063,451.9375 479.4063,452.4219 L479.4063,453.2969 L475.0469,453.2969 L475.0469,450.875 Z " fill="#000000"/><text fill="#000000" font-family="sans-serif" font-size="14" lengthAdjust="spacing" textLength="51" x="496.75" y="454.8467">Invoice</text><line style="stroke:#181818;stroke-width:0.5;" x1="399.5" x2="612.5" y1="466" y2="466"/><ellipse cx="409.5" cy="479.6484" fill="#000000" rx="3" ry="3" style="stroke:#000000;stroke-width:1.0;"/><text fill="#000000" font-family="sans-serif" font-size="14" lengthAdjust="spacing" textLength="156" x="418.5" y="482.9951">invoice_id : UUID &#171;PK&#187;</text><line style="stroke:#181818;stroke-width:1.0;" x1="399.5" x2="612.5" y1="490.2969" y2="490.2969"/><ellipse cx="409.5" cy="503.9453" fill="#000000" rx="3" ry="3" style="stroke:#000000;stroke-width:1.0;"/><text fill="#000000" font-family="sans-serif" font-size="14" lengthAdjust="spacing" textLength="189" x="418.5" y="507.292">subscription_id: UUID &#171;FK&#187;</text><ellipse cx="409.5" cy="520.2422" fill="#000000" rx="3" ry="3" style="stroke:#000000;stroke-width:1.0;"/><text fill="#000000" font-family="sans-serif" font-size="14" lengthAdjust="spacing" textLength="154" x="418.5" y="523.5889">invoice_dt : datetime</text><ellipse cx="409.5" cy="536.5391" fill="#000000" rx="3" ry="3" style="stroke:#000000;stroke-width:1.0;"/><text fill="#000000" font-family="sans-serif" font-size="14" lengthAdjust="spacing" textLength="132" x="418.5" y="539.8857">created: datetime</text><ellipse cx="409.5" cy="552.8359" fill="#000000" rx="3" ry="3" style="stroke:#000000;stroke-width:1.0;"/><text fill="#000000" font-family="sans-serif" font-size="14" lengthAdjust="spacing" textLength="140" x="418.5" y="556.1826">modified: datetime</text></g><!--class subscription--><g id="elem_subscription"><rect codeLine="14" fill="#F1F1F1" height="178.375" id="subscription" rx="2.5" ry="2.5" style="stroke:#181818;stroke-width:0.5;" width="166" x="423" y="196"/><ellipse cx="457.35" cy="212" fill="#ADD1B2" rx="11" ry="11" style="stroke:#181818;stroke-width:1.0;"/><path d="M456.1469,212.875 L457.6,212.875 L457.6,212.9844 C457.6,213.3906 457.6313,213.5469 457.7094,213.7031 C457.8656,213.9531 458.1469,214.1094 458.4438,214.1094 C458.6938,214.1094 458.9594,213.9688 459.1156,213.75 C459.2406,213.5938 459.2719,213.4375 459.2719,212.9844 L459.2719,211.0625 C459.2719,210.9063 459.2719,210.8594 459.2563,210.7031 C459.1938,210.2344 458.8813,209.9219 458.4281,209.9219 C458.1781,209.9219 457.9125,210.0625 457.7406,210.2813 C457.6313,210.4531 457.6,210.6094 457.6,211.0625 L457.6,211.1875 L456.1469,211.1875 L456.1469,208.7813 L460.1313,208.7813 L460.1313,209.6406 C460.1313,210.0469 460.1625,210.2188 460.2406,210.375 C460.4125,210.625 460.6938,210.7813 460.975,210.7813 C461.2406,210.7813 461.5063,210.6406 461.6781,210.4219 C461.7875,210.25 461.8188,210.1094 461.8188,209.6406 L461.8188,207.0938 L454.1938,207.0938 C453.7563,207.0938 453.6313,207.1094 453.475,207.2031 C453.225,207.3594 453.0688,207.6563 453.0688,207.9375 C453.0688,208.2188 453.2094,208.4688 453.4281,208.6406 C453.5844,208.75 453.7719,208.7813 454.1938,208.7813 L454.4438,208.7813 L454.4438,215.2969 L454.1938,215.2969 C453.7875,215.2969 453.6313,215.3125 453.475,215.4219 C453.225,215.5938 453.0688,215.8594 453.0688,216.1563 C453.0688,216.4219 453.2094,216.6719 453.4281,216.8281 C453.5688,216.9531 453.8031,217 454.1938,217 L462.1938,217 L462.1938,214.4219 C462.1938,213.9844 462.1625,213.8438 462.0844,213.6875 C461.9125,213.4375 461.6313,213.2813 461.35,213.2813 C461.0844,213.2813 460.8188,213.3906 460.6469,213.6406 C460.5375,213.7969 460.5063,213.9375 460.5063,214.4219 L460.5063,215.2969 L456.1469,215.2969 L456.1469,212.875 Z " fill="#000000"/><text fill="#000000" font-family="sans-serif" font-size="14" lengthAdjust="spacing" textLength="91" x="475.65" y="216.8467">Subscription</text><line style="stroke:#181818;stroke-width:0.5;" x1="424" x2="588" y1="228" y2="228"/><ellipse cx="434" cy="241.6484" fill="#000000" rx="3" ry="3" style="stroke:#000000;stroke-width:1.0;"/><text fill="#000000" font-family="sans-serif" font-size="14" lengthAdjust="spacing" textLength="94" x="443" y="244.9951">id: UUID &#171;PK&#187;</text><line style="stroke:#181818;stroke-width:1.0;" x1="424" x2="588" y1="252.2969" y2="252.2969"/><ellipse cx="434" cy="265.9453" fill="#000000" rx="3" ry="3" style="stroke:#000000;stroke-width:1.0;"/><text fill="#000000" font-family="sans-serif" font-size="14" lengthAdjust="spacing" textLength="131" x="443" y="269.292">plan_id: UUID &#171;FK&#187;</text><ellipse cx="434" cy="282.2422" fill="#000000" rx="3" ry="3" style="stroke:#000000;stroke-width:1.0;"/><text fill="#000000" font-family="sans-serif" font-size="14" font-weight="bold" lengthAdjust="spacing" textLength="106" x="443" y="285.5889">user_id: UUID</text><ellipse cx="434" cy="298.5391" fill="#000000" rx="3" ry="3" style="stroke:#000000;stroke-width:1.0;"/><text fill="#000000" font-family="sans-serif" font-size="14" lengthAdjust="spacing" textLength="84" x="443" y="301.8857">status: text</text><ellipse cx="434" cy="314.8359" fill="#000000" rx="3" ry="3" style="stroke:#000000;stroke-width:1.0;"/><text fill="#000000" font-family="sans-serif" font-size="14" lengthAdjust="spacing" textLength="134" x="443" y="318.1826">start_dt: datetime</text><ellipse cx="434" cy="331.1328" fill="#000000" rx="3" ry="3" style="stroke:#000000;stroke-width:1.0;"/><text fill="#000000" font-family="sans-serif" font-size="14" lengthAdjust="spacing" textLength="126" x="443" y="334.4795">end_dt: datetime</text><ellipse cx="434" cy="347.4297" fill="#000000" rx="3" ry="3" style="stroke:#000000;stroke-width:1.0;"/><text fill="#000000" font-family="sans-serif" font-size="14" lengthAdjust="spacing" textLength="132" x="443" y="350.7764">created: datetime</text><ellipse cx="434" cy="363.7266" fill="#000000" rx="3" ry="3" style="stroke:#000000;stroke-width:1.0;"/><text fill="#000000" font-family="sans-serif" font-size="14" lengthAdjust="spacing" textLength="140" x="443" y="367.0732">modified: datetime</text></g><!--class plan--><g id="elem_plan"><rect codeLine="26" fill="#F1F1F1" height="129.4844" id="plan" rx="2.5" ry="2.5" style="stroke:#181818;stroke-width:0.5;" width="166" x="423" y="7"/><ellipse cx="486.75" cy="23" fill="#ADD1B2" rx="11" ry="11" style="stroke:#181818;stroke-width:1.0;"/><path d="M485.5469,23.875 L487,23.875 L487,23.9844 C487,24.3906 487.0313,24.5469 487.1094,24.7031 C487.2656,24.9531 487.5469,25.1094 487.8438,25.1094 C488.0938,25.1094 488.3594,24.9688 488.5156,24.75 C488.6406,24.5938 488.6719,24.4375 488.6719,23.9844 L488.6719,22.0625 C488.6719,21.9063 488.6719,21.8594 488.6563,21.7031 C488.5938,21.2344 488.2813,20.9219 487.8281,20.9219 C487.5781,20.9219 487.3125,21.0625 487.1406,21.2813 C487.0313,21.4531 487,21.6094 487,22.0625 L487,22.1875 L485.5469,22.1875 L485.5469,19.7813 L489.5313,19.7813 L489.5313,20.6406 C489.5313,21.0469 489.5625,21.2188 489.6406,21.375 C489.8125,21.625 490.0938,21.7813 490.375,21.7813 C490.6406,21.7813 490.9063,21.6406 491.0781,21.4219 C491.1875,21.25 491.2188,21.1094 491.2188,20.6406 L491.2188,18.0938 L483.5938,18.0938 C483.1563,18.0938 483.0313,18.1094 482.875,18.2031 C482.625,18.3594 482.4688,18.6563 482.4688,18.9375 C482.4688,19.2188 482.6094,19.4688 482.8281,19.6406 C482.9844,19.75 483.1719,19.7813 483.5938,19.7813 L483.8438,19.7813 L483.8438,26.2969 L483.5938,26.2969 C483.1875,26.2969 483.0313,26.3125 482.875,26.4219 C482.625,26.5938 482.4688,26.8594 482.4688,27.1563 C482.4688,27.4219 482.6094,27.6719 482.8281,27.8281 C482.9688,27.9531 483.2031,28 483.5938,28 L491.5938,28 L491.5938,25.4219 C491.5938,24.9844 491.5625,24.8438 491.4844,24.6875 C491.3125,24.4375 491.0313,24.2813 490.75,24.2813 C490.4844,24.2813 490.2188,24.3906 490.0469,24.6406 C489.9375,24.7969 489.9063,24.9375 489.9063,25.4219 L489.9063,26.2969 L485.5469,26.2969 L485.5469,23.875 Z " fill="#000000"/><text fill="#000000" font-family="sans-serif" font-size="14" lengthAdjust="spacing" textLength="30" x="507.25" y="27.8467">Plan</text><line style="stroke:#181818;stroke-width:0.5;" x1="424" x2="588" y1="39" y2="39"/><ellipse cx="434" cy="52.6484" fill="#000000" rx="3" ry="3" style="stroke:#000000;stroke-width:1.0;"/><text fill="#000000" font-family="sans-serif" font-size="14" lengthAdjust="spacing" textLength="98" x="443" y="55.9951">id : UUID &#171;PK&#187;</text><line style="stroke:#181818;stroke-width:1.0;" x1="424" x2="588" y1="63.2969" y2="63.2969"/><ellipse cx="434" cy="76.9453" fill="#000000" rx="3" ry="3" style="stroke:#000000;stroke-width:1.0;"/><text fill="#000000" font-family="sans-serif" font-size="14" lengthAdjust="spacing" textLength="80" x="443" y="80.292">name: text</text><text fill="#000000" font-family="sans-serif" font-size="14" lengthAdjust="spacing" textLength="122" x="443" y="96.5889">description: text</text><ellipse cx="434" cy="109.5391" fill="#000000" rx="3" ry="3" style="stroke:#000000;stroke-width:1.0;"/><text fill="#000000" font-family="sans-serif" font-size="14" lengthAdjust="spacing" textLength="132" x="443" y="112.8857">created: datetime</text><ellipse cx="434" cy="125.8359" fill="#000000" rx="3" ry="3" style="stroke:#000000;stroke-width:1.0;"/><text fill="#000000" font-family="sans-serif" font-size="14" lengthAdjust="spacing" textLength="140" x="443" y="129.1826">modified: datetime</text></g><!--class payment--><g id="elem_payment"><rect codeLine="36" fill="#F1F1F1" height="178.375" id="payment" rx="2.5" ry="2.5" style="stroke:#181818;stroke-width:0.5;" width="187" x="412.5" y="623"/><ellipse cx="469.75" cy="639" fill="#ADD1B2" rx="11" ry="11" style="stroke:#181818;stroke-width:1.0;"/><path d="M468.5469,639.875 L470,639.875 L470,639.9844 C470,640.3906 470.0313,640.5469 470.1094,640.7031 C470.2656,640.9531 470.5469,641.1094 470.8438,641.1094 C471.0938,641.1094 471.3594,640.9688 471.5156,640.75 C471.6406,640.5938 471.6719,640.4375 471.6719,639.9844 L471.6719,638.0625 C471.6719,637.9063 471.6719,637.8594 471.6563,637.7031 C471.5938,637.2344 471.2813,636.9219 470.8281,636.9219 C470.5781,636.9219 470.3125,637.0625 470.1406,637.2813 C470.0313,637.4531 470,637.6094 470,638.0625 L470,638.1875 L468.5469,638.1875 L468.5469,635.7813 L472.5313,635.7813 L472.5313,636.6406 C472.5313,637.0469 472.5625,637.2188 472.6406,637.375 C472.8125,637.625 473.0938,637.7813 473.375,637.7813 C473.6406,637.7813 473.9063,637.6406 474.0781,637.4219 C474.1875,637.25 474.2188,637.1094 474.2188,636.6406 L474.2188,634.0938 L466.5938,634.0938 C466.1563,634.0938 466.0313,634.1094 465.875,634.2031 C465.625,634.3594 465.4688,634.6563 465.4688,634.9375 C465.4688,635.2188 465.6094,635.4688 465.8281,635.6406 C465.9844,635.75 466.1719,635.7813 466.5938,635.7813 L466.8438,635.7813 L466.8438,642.2969 L466.5938,642.2969 C466.1875,642.2969 466.0313,642.3125 465.875,642.4219 C465.625,642.5938 465.4688,642.8594 465.4688,643.1563 C465.4688,643.4219 465.6094,643.6719 465.8281,643.8281 C465.9688,643.9531 466.2031,644 466.5938,644 L474.5938,644 L474.5938,641.4219 C474.5938,640.9844 474.5625,640.8438 474.4844,640.6875 C474.3125,640.4375 474.0313,640.2813 473.75,640.2813 C473.4844,640.2813 473.2188,640.3906 473.0469,640.6406 C472.9375,640.7969 472.9063,640.9375 472.9063,641.4219 L472.9063,642.2969 L468.5469,642.2969 L468.5469,639.875 Z " fill="#000000"/><text fill="#000000" font-family="sans-serif" font-size="14" lengthAdjust="spacing" textLength="64" x="490.25" y="643.8467">Payment</text><line style="stroke:#181818;stroke-width:0.5;" x1="413.5" x2="598.5" y1="655" y2="655"/><ellipse cx="423.5" cy="668.6484" fill="#000000" rx="3" ry="3" style="stroke:#000000;stroke-width:1.0;"/><text fill="#000000" font-family="sans-serif" font-size="14" lengthAdjust="spacing" textLength="94" x="432.5" y="671.9951">id: UUID &#171;PK&#187;</text><line style="stroke:#181818;stroke-width:1.0;" x1="413.5" x2="598.5" y1="679.2969" y2="679.2969"/><ellipse cx="423.5" cy="692.9453" fill="#000000" rx="3" ry="3" style="stroke:#000000;stroke-width:1.0;"/><text fill="#000000" font-family="sans-serif" font-size="14" lengthAdjust="spacing" textLength="151" x="432.5" y="696.292">invoice_id: UUID &#171;FK&#187;</text><ellipse cx="423.5" cy="709.2422" fill="#000000" rx="3" ry="3" style="stroke:#000000;stroke-width:1.0;"/><text fill="#000000" font-family="sans-serif" font-size="14" lengthAdjust="spacing" textLength="161" x="432.5" y="712.5889">provider_id: UUID &#171;FK&#187;</text><ellipse cx="423.5" cy="725.5391" fill="#000000" rx="3" ry="3" style="stroke:#000000;stroke-width:1.0;"/><text fill="#000000" font-family="sans-serif" font-size="14" lengthAdjust="spacing" textLength="84" x="432.5" y="728.8857">status: text</text><ellipse cx="423.5" cy="741.8359" fill="#000000" rx="3" ry="3" style="stroke:#000000;stroke-width:1.0;"/><text fill="#000000" font-family="sans-serif" font-size="14" lengthAdjust="spacing" textLength="102" x="432.5" y="745.1826">value: number</text><ellipse cx="423.5" cy="758.1328" fill="#000000" rx="3" ry="3" style="stroke:#000000;stroke-width:1.0;"/><text fill="#000000" font-family="sans-serif" font-size="14" lengthAdjust="spacing" textLength="102" x="432.5" y="761.4795">currency: text</text><ellipse cx="423.5" cy="774.4297" fill="#000000" rx="3" ry="3" style="stroke:#000000;stroke-width:1.0;"/><text fill="#000000" font-family="sans-serif" font-size="14" lengthAdjust="spacing" textLength="132" x="432.5" y="777.7764">created: datetime</text><ellipse cx="423.5" cy="790.7266" fill="#000000" rx="3" ry="3" style="stroke:#000000;stroke-width:1.0;"/><text fill="#000000" font-family="sans-serif" font-size="14" lengthAdjust="spacing" textLength="140" x="432.5" y="794.0732">modified: datetime</text></g><!--class provider--><g id="elem_provider"><rect codeLine="49" fill="#F1F1F1" height="129.4844" id="provider" rx="2.5" ry="2.5" style="stroke:#181818;stroke-width:0.5;" width="166" x="211" y="647.5"/><ellipse cx="230.5" cy="663.5" fill="#ADD1B2" rx="11" ry="11" style="stroke:#181818;stroke-width:1.0;"/><path d="M229.2969,664.375 L230.75,664.375 L230.75,664.4844 C230.75,664.8906 230.7813,665.0469 230.8594,665.2031 C231.0156,665.4531 231.2969,665.6094 231.5938,665.6094 C231.8438,665.6094 232.1094,665.4688 232.2656,665.25 C232.3906,665.0938 232.4219,664.9375 232.4219,664.4844 L232.4219,662.5625 C232.4219,662.4063 232.4219,662.3594 232.4063,662.2031 C232.3438,661.7344 232.0313,661.4219 231.5781,661.4219 C231.3281,661.4219 231.0625,661.5625 230.8906,661.7813 C230.7813,661.9531 230.75,662.1094 230.75,662.5625 L230.75,662.6875 L229.2969,662.6875 L229.2969,660.2813 L233.2813,660.2813 L233.2813,661.1406 C233.2813,661.5469 233.3125,661.7188 233.3906,661.875 C233.5625,662.125 233.8438,662.2813 234.125,662.2813 C234.3906,662.2813 234.6563,662.1406 234.8281,661.9219 C234.9375,661.75 234.9688,661.6094 234.9688,661.1406 L234.9688,658.5938 L227.3438,658.5938 C226.9063,658.5938 226.7813,658.6094 226.625,658.7031 C226.375,658.8594 226.2188,659.1563 226.2188,659.4375 C226.2188,659.7188 226.3594,659.9688 226.5781,660.1406 C226.7344,660.25 226.9219,660.2813 227.3438,660.2813 L227.5938,660.2813 L227.5938,666.7969 L227.3438,666.7969 C226.9375,666.7969 226.7813,666.8125 226.625,666.9219 C226.375,667.0938 226.2188,667.3594 226.2188,667.6563 C226.2188,667.9219 226.3594,668.1719 226.5781,668.3281 C226.7188,668.4531 226.9531,668.5 227.3438,668.5 L235.3438,668.5 L235.3438,665.9219 C235.3438,665.4844 235.3125,665.3438 235.2344,665.1875 C235.0625,664.9375 234.7813,664.7813 234.5,664.7813 C234.2344,664.7813 233.9688,664.8906 233.7969,665.1406 C233.6875,665.2969 233.6563,665.4375 233.6563,665.9219 L233.6563,666.7969 L229.2969,666.7969 L229.2969,664.375 Z " fill="#000000"/><text fill="#000000" font-family="sans-serif" font-size="14" lengthAdjust="spacing" textLength="124" x="245.5" y="668.3467">PaymentProvider</text><line style="stroke:#181818;stroke-width:0.5;" x1="212" x2="376" y1="679.5" y2="679.5"/><ellipse cx="222" cy="693.1484" fill="#000000" rx="3" ry="3" style="stroke:#000000;stroke-width:1.0;"/><text fill="#000000" font-family="sans-serif" font-size="14" lengthAdjust="spacing" textLength="98" x="231" y="696.4951">id : UUID &#171;PK&#187;</text><line style="stroke:#181818;stroke-width:1.0;" x1="212" x2="376" y1="703.7969" y2="703.7969"/><ellipse cx="222" cy="717.4453" fill="#000000" rx="3" ry="3" style="stroke:#000000;stroke-width:1.0;"/><text fill="#000000" font-family="sans-serif" font-size="14" lengthAdjust="spacing" textLength="80" x="231" y="720.792">name: text</text><text fill="#000000" font-family="sans-serif" font-size="14" lengthAdjust="spacing" textLength="122" x="231" y="737.0889">description: text</text><ellipse cx="222" cy="750.0391" fill="#000000" rx="3" ry="3" style="stroke:#000000;stroke-width:1.0;"/><text fill="#000000" font-family="sans-serif" font-size="14" lengthAdjust="spacing" textLength="132" x="231" y="753.3857">created: datetime</text><ellipse cx="222" cy="766.3359" fill="#000000" rx="3" ry="3" style="stroke:#000000;stroke-width:1.0;"/><text fill="#000000" font-family="sans-serif" font-size="14" lengthAdjust="spacing" textLength="140" x="231" y="769.6826">modified: datetime</text></g><!--class feature--><g id="elem_feature"><rect codeLine="69" fill="#F1F1F1" height="129.4844" id="feature" rx="2.5" ry="2.5" style="stroke:#181818;stroke-width:0.5;" width="166" x="7" y="7"/><ellipse cx="58.25" cy="23" fill="#ADD1B2" rx="11" ry="11" style="stroke:#181818;stroke-width:1.0;"/><path d="M57.0469,23.875 L58.5,23.875 L58.5,23.9844 C58.5,24.3906 58.5313,24.5469 58.6094,24.7031 C58.7656,24.9531 59.0469,25.1094 59.3438,25.1094 C59.5938,25.1094 59.8594,24.9688 60.0156,24.75 C60.1406,24.5938 60.1719,24.4375 60.1719,23.9844 L60.1719,22.0625 C60.1719,21.9063 60.1719,21.8594 60.1563,21.7031 C60.0938,21.2344 59.7813,20.9219 59.3281,20.9219 C59.0781,20.9219 58.8125,21.0625 58.6406,21.2813 C58.5313,21.4531 58.5,21.6094 58.5,22.0625 L58.5,22.1875 L57.0469,22.1875 L57.0469,19.7813 L61.0313,19.7813 L61.0313,20.6406 C61.0313,21.0469 61.0625,21.2188 61.1406,21.375 C61.3125,21.625 61.5938,21.7813 61.875,21.7813 C62.1406,21.7813 62.4063,21.6406 62.5781,21.4219 C62.6875,21.25 62.7188,21.1094 62.7188,20.6406 L62.7188,18.0938 L55.0938,18.0938 C54.6563,18.0938 54.5313,18.1094 54.375,18.2031 C54.125,18.3594 53.9688,18.6563 53.9688,18.9375 C53.9688,19.2188 54.1094,19.4688 54.3281,19.6406 C54.4844,19.75 54.6719,19.7813 55.0938,19.7813 L55.3438,19.7813 L55.3438,26.2969 L55.0938,26.2969 C54.6875,26.2969 54.5313,26.3125 54.375,26.4219 C54.125,26.5938 53.9688,26.8594 53.9688,27.1563 C53.9688,27.4219 54.1094,27.6719 54.3281,27.8281 C54.4688,27.9531 54.7031,28 55.0938,28 L63.0938,28 L63.0938,25.4219 C63.0938,24.9844 63.0625,24.8438 62.9844,24.6875 C62.8125,24.4375 62.5313,24.2813 62.25,24.2813 C61.9844,24.2813 61.7188,24.3906 61.5469,24.6406 C61.4375,24.7969 61.4063,24.9375 61.4063,25.4219 L61.4063,26.2969 L57.0469,26.2969 L57.0469,23.875 Z " fill="#000000"/><text fill="#000000" font-family="sans-serif" font-size="14" lengthAdjust="spacing" textLength="55" x="78.75" y="27.8467">Feature</text><line style="stroke:#181818;stroke-width:0.5;" x1="8" x2="172" y1="39" y2="39"/><ellipse cx="18" cy="52.6484" fill="#000000" rx="3" ry="3" style="stroke:#000000;stroke-width:1.0;"/><text fill="#000000" font-family="sans-serif" font-size="14" lengthAdjust="spacing" textLength="94" x="27" y="55.9951">id: UUID &#171;PK&#187;</text><line style="stroke:#181818;stroke-width:1.0;" x1="8" x2="172" y1="63.2969" y2="63.2969"/><ellipse cx="18" cy="76.9453" fill="#000000" rx="3" ry="3" style="stroke:#000000;stroke-width:1.0;"/><text fill="#000000" font-family="sans-serif" font-size="14" lengthAdjust="spacing" textLength="80" x="27" y="80.292">name: text</text><text fill="#000000" font-family="sans-serif" font-size="14" lengthAdjust="spacing" textLength="122" x="27" y="96.5889">description: text</text><ellipse cx="18" cy="109.5391" fill="#000000" rx="3" ry="3" style="stroke:#000000;stroke-width:1.0;"/><text fill="#000000" font-family="sans-serif" font-size="14" lengthAdjust="spacing" textLength="132" x="27" y="112.8857">created: datetime</text><ellipse cx="18" cy="125.8359" fill="#000000" rx="3" ry="3" style="stroke:#000000;stroke-width:1.0;"/><text fill="#000000" font-family="sans-serif" font-size="14" lengthAdjust="spacing" textLength="140" x="27" y="129.1826">modified: datetime</text></g><!--class plan_features--><g id="elem_plan_features"><rect codeLine="79" fill="#F1F1F1" height="96.8906" id="plan_features" rx="2.5" ry="2.5" style="stroke:#181818;stroke-width:0.5;" width="179" x="208.5" y="23"/><ellipse cx="248.25" cy="39" fill="#ADD1B2" rx="11" ry="11" style="stroke:#181818;stroke-width:1.0;"/><path d="M247.0469,39.875 L248.5,39.875 L248.5,39.9844 C248.5,40.3906 248.5313,40.5469 248.6094,40.7031 C248.7656,40.9531 249.0469,41.1094 249.3438,41.1094 C249.5938,41.1094 249.8594,40.9688 250.0156,40.75 C250.1406,40.5938 250.1719,40.4375 250.1719,39.9844 L250.1719,38.0625 C250.1719,37.9063 250.1719,37.8594 250.1563,37.7031 C250.0938,37.2344 249.7813,36.9219 249.3281,36.9219 C249.0781,36.9219 248.8125,37.0625 248.6406,37.2813 C248.5313,37.4531 248.5,37.6094 248.5,38.0625 L248.5,38.1875 L247.0469,38.1875 L247.0469,35.7813 L251.0313,35.7813 L251.0313,36.6406 C251.0313,37.0469 251.0625,37.2188 251.1406,37.375 C251.3125,37.625 251.5938,37.7813 251.875,37.7813 C252.1406,37.7813 252.4063,37.6406 252.5781,37.4219 C252.6875,37.25 252.7188,37.1094 252.7188,36.6406 L252.7188,34.0938 L245.0938,34.0938 C244.6563,34.0938 244.5313,34.1094 244.375,34.2031 C244.125,34.3594 243.9688,34.6563 243.9688,34.9375 C243.9688,35.2188 244.1094,35.4688 244.3281,35.6406 C244.4844,35.75 244.6719,35.7813 245.0938,35.7813 L245.3438,35.7813 L245.3438,42.2969 L245.0938,42.2969 C244.6875,42.2969 244.5313,42.3125 244.375,42.4219 C244.125,42.5938 243.9688,42.8594 243.9688,43.1563 C243.9688,43.4219 244.1094,43.6719 244.3281,43.8281 C244.4688,43.9531 244.7031,44 245.0938,44 L253.0938,44 L253.0938,41.4219 C253.0938,40.9844 253.0625,40.8438 252.9844,40.6875 C252.8125,40.4375 252.5313,40.2813 252.25,40.2813 C251.9844,40.2813 251.7188,40.3906 251.5469,40.6406 C251.4375,40.7969 251.4063,40.9375 251.4063,41.4219 L251.4063,42.2969 L247.0469,42.2969 L247.0469,39.875 Z " fill="#000000"/><text fill="#000000" font-family="sans-serif" font-size="14" lengthAdjust="spacing" textLength="92" x="267.75" y="43.8467">PlanFeatures</text><line style="stroke:#181818;stroke-width:0.5;" x1="209.5" x2="386.5" y1="55" y2="55"/><ellipse cx="219.5" cy="68.6484" fill="#000000" rx="3" ry="3" style="stroke:#000000;stroke-width:1.0;"/><text fill="#000000" font-family="sans-serif" font-size="14" lengthAdjust="spacing" textLength="150" x="228.5" y="71.9951">id: UUID &#171;generated&#187;</text><line style="stroke:#181818;stroke-width:1.0;" x1="209.5" x2="386.5" y1="79.2969" y2="79.2969"/><ellipse cx="219.5" cy="92.9453" fill="#000000" rx="3" ry="3" style="stroke:#000000;stroke-width:1.0;"/><text fill="#000000" font-family="sans-serif" font-size="14" lengthAdjust="spacing" textLength="131" x="228.5" y="96.292">plan_id: UUID &#171;FK&#187;</text><ellipse cx="219.5" cy="109.2422" fill="#000000" rx="3" ry="3" style="stroke:#000000;stroke-width:1.0;"/><text fill="#000000" font-family="sans-serif" font-size="14" lengthAdjust="spacing" textLength="153" x="228.5" y="112.5889">feature_id: UUID &#171;FK&#187;</text></g><!--link subscription to invoice--><g id="link_subscription_invoice"><path codeLine="95" d="M506,382.306 C506,402.303 506,407.139 506,425.904 " fill="none" id="subscription-invoice" style="stroke:#181818;stroke-width:1.0;"/><line style="stroke:#181818;stroke-width:1.0;" x1="502" x2="510" y1="378.306" y2="378.306"/><line style="stroke:#181818;stroke-width:1.0;" x1="502" x2="510" y1="381.306" y2="381.306"/><line style="stroke:#181818;stroke-width:1.0;" x1="506" x2="506" y1="382.306" y2="374.306"/><line style="stroke:#181818;stroke-width:1.0;" x1="510" x2="502" y1="429.904" y2="429.904"/><line style="stroke:#181818;stroke-width:1.0;" x1="510" x2="502" y1="426.904" y2="426.904"/><line style="stroke:#181818;stroke-width:1.0;" x1="506" x2="506" y1="425.904" y2="433.904"/></g><!--link plan to subscription--><g id="link_plan_subscription"><path codeLine="96" d="M506,144.136 C506,162.914 506,167.763 506,187.767 " fill="none" id="plan-subscription" style="stroke:#181818;stroke-width:1.0;"/><line style="stroke:#181818;stroke-width:1.0;" x1="502" x2="510" y1="140.136" y2="140.136"/><line style="stroke:#181818;stroke-width:1.0;" x1="502" x2="510" y1="143.136" y2="143.136"/><line style="stroke:#181818;stroke-width:1.0;" x1="506" x2="506" y1="144.136" y2="136.136"/><line style="stroke:#181818;stroke-width:1.0;" x1="506" x2="512" y1="187.767" y2="195.767"/><line style="stroke:#181818;stroke-width:1.0;" x1="506" x2="500" y1="187.767" y2="195.767"/><line style="stroke:#181818;stroke-width:1.0;" x1="506" x2="506" y1="187.767" y2="195.767"/><line style="stroke:#181818;stroke-width:1.0;" x1="510" x2="502" y1="185.767" y2="185.767"/></g><!--link invoice to payment--><g id="link_invoice_payment"><path codeLine="97" d="M506,571.136 C506,589.914 506,594.763 506,614.767 " fill="none" id="invoice-payment" style="stroke:#181818;stroke-width:1.0;"/><line style="stroke:#181818;stroke-width:1.0;" x1="502" x2="510" y1="567.136" y2="567.136"/><line style="stroke:#181818;stroke-width:1.0;" x1="502" x2="510" y1="570.136" y2="570.136"/><line style="stroke:#181818;stroke-width:1.0;" x1="506" x2="506" y1="571.136" y2="563.136"/><line style="stroke:#181818;stroke-width:1.0;" x1="506" x2="512" y1="614.767" y2="622.767"/><line style="stroke:#181818;stroke-width:1.0;" x1="506" x2="500" y1="614.767" y2="622.767"/><line style="stroke:#181818;stroke-width:1.0;" x1="506" x2="506" y1="614.767" y2="622.767"/><line style="stroke:#181818;stroke-width:1.0;" x1="510" x2="502" y1="612.767" y2="612.767"/></g><!--link provider to payment--><g id="link_provider_payment"><path codeLine="98" d="M385.18,712 C396.664,712 392.523,712 404.183,712 " fill="none" id="provider-payment" style="stroke:#181818;stroke-width:1.0;"/><line style="stroke:#181818;stroke-width:1.0;" x1="381.18" x2="381.18" y1="716" y2="708"/><line style="stroke:#181818;stroke-width:1.0;" x1="384.18" x2="384.18" y1="716" y2="708"/><line style="stroke:#181818;stroke-width:1.0;" x1="385.18" x2="377.18" y1="712" y2="712"/><line style="stroke:#181818;stroke-width:1.0;" x1="404.183" x2="412.183" y1="712" y2="706"/><line style="stroke:#181818;stroke-width:1.0;" x1="404.183" x2="412.183" y1="712" y2="718"/><line style="stroke:#181818;stroke-width:1.0;" x1="404.183" x2="412.183" y1="712" y2="712"/><line style="stroke:#181818;stroke-width:1.0;" x1="402.183" x2="402.183" y1="708" y2="716"/></g><!--link plan_features to plan--><g id="link_plan_features_plan"><path codeLine="99" d="M395.72,72 C407.375,72 403.273,72 414.816,72 " fill="none" id="plan_features-plan" style="stroke:#181818;stroke-width:1.0;"/><line style="stroke:#181818;stroke-width:1.0;" x1="395.72" x2="387.72" y1="72" y2="78"/><line style="stroke:#181818;stroke-width:1.0;" x1="395.72" x2="387.72" y1="72" y2="66"/><line style="stroke:#181818;stroke-width:1.0;" x1="395.72" x2="387.72" y1="72" y2="72"/><line style="stroke:#181818;stroke-width:1.0;" x1="397.72" x2="397.72" y1="76" y2="68"/><line style="stroke:#181818;stroke-width:1.0;" x1="418.816" x2="418.816" y1="68" y2="76"/><line style="stroke:#181818;stroke-width:1.0;" x1="415.816" x2="415.816" y1="68" y2="76"/><line style="stroke:#181818;stroke-width:1.0;" x1="414.816" x2="422.816" y1="72" y2="72"/></g><!--link feature to plan_features--><g id="link_feature_plan_features"><path codeLine="100" d="M181.104,72 C192.646,72 188.546,72 200.203,72 " fill="none" id="feature-plan_features" style="stroke:#181818;stroke-width:1.0;"/><line style="stroke:#181818;stroke-width:1.0;" x1="177.104" x2="177.104" y1="76" y2="68"/><line style="stroke:#181818;stroke-width:1.0;" x1="180.104" x2="180.104" y1="76" y2="68"/><line style="stroke:#181818;stroke-width:1.0;" x1="181.104" x2="173.104" y1="72" y2="72"/><line style="stroke:#181818;stroke-width:1.0;" x1="200.203" x2="208.203" y1="72" y2="66"/><line style="stroke:#181818;stroke-width:1.0;" x1="200.203" x2="208.203" y1="72" y2="78"/><line style="stroke:#181818;stroke-width:1.0;" x1="200.203" x2="208.203" y1="72" y2="72"/><line style="stroke:#181818;stroke-width:1.0;" x1="198.203" x2="198.203" y1="68" y2="76"/></g><!--SRC=[hPHDYy8m48Rl-HM35w5Gl8jusKMGlSWkdYKsungsJKkIoehrls-Qf1-nhkYkjoGpwJplsvcCOSyPWjuZg2BNPEps2PT9YaHzSL5GIJD8kK1zB11ogVSv8IWqrqSOBSKXvmcEW2hWRWqd0X3vpOOpcC9wlNo5sMprDf-RM1pN2QhSgaJoGlDScAmsQU6IsWymRJx0g4RDCwm3YKIpO-5XbZE-uy7fkQFywDMogFtYdfTTnonIUXKFegXKADjG55bHckfIJK7Zj_PxgOs441O56vpzGTNAe5arDMEZuXUt1SsmnGA6hVgEzG623e4UCxDs56vzsywkBGQE5Z8_cDwJrsANlXveMXezeiosAC7IbrAYI8vFqRFoA4wNtppYy7yDdenRf1SlpB8qAaEFBr7gGUtA1c0FG8mddIyBSwcKRintRdtpDp_LZA3XFObg6t_ZUTIWyJvHeAoBt37E_YE3KFWltZ518yJMbcvzNrNNLbSAUv-RfxEguhA8gofue4ZmMfsR53lr_PjnTMg6a3J3QB9Jt6cRx_kOs8jL4pY5BfBGqzvzV_O3]--></g></svg>