<?xml version="1.0" encoding="us-ascii" standalone="no"?><svg xmlns="http://www.w3.org/2000/svg" xmlns:xlink="http://www.w3.org/1999/xlink" contentStyleType="text/css" height="589px" preserveAspectRatio="none" style="width:1080px;height:589px;background:#FFFFFF;" version="1.1" viewBox="0 0 1080 589" width="1080px" zoomAndPan="magnify"><defs/><g><line style="stroke:#181818;stroke-width:0.5;stroke-dasharray:5.0,5.0;" x1="33" x2="33" y1="67.2969" y2="511.4219"/><line style="stroke:#181818;stroke-width:0.5;stroke-dasharray:5.0,5.0;" x1="330.5" x2="330.5" y1="67.2969" y2="511.4219"/><line style="stroke:#181818;stroke-width:0.5;stroke-dasharray:5.0,5.0;" x1="719.5" x2="719.5" y1="67.2969" y2="511.4219"/><line style="stroke:#181818;stroke-width:0.5;stroke-dasharray:5.0,5.0;" x1="799.5" x2="799.5" y1="67.2969" y2="511.4219"/><line style="stroke:#181818;stroke-width:0.5;stroke-dasharray:5.0,5.0;" x1="1005" x2="1005" y1="67.2969" y2="511.4219"/><rect fill="#E2E2F0" height="30.2969" rx="2.5" ry="2.5" style="stroke:#181818;stroke-width:0.5;" width="57" x="5" y="36"/><text fill="#000000" font-family="sans-serif" font-size="14" lengthAdjust="spacing" textLength="43" x="12" y="55.9951">Client</text><rect fill="#E2E2F0" height="30.2969" rx="2.5" ry="2.5" style="stroke:#181818;stroke-width:0.5;" width="57" x="5" y="510.4219"/><text fill="#000000" font-family="sans-serif" font-size="14" lengthAdjust="spacing" textLength="43" x="12" y="530.417">Client</text><rect fill="#E2E2F0" height="30.2969" rx="2.5" ry="2.5" style="stroke:#181818;stroke-width:0.5;" width="58" x="301.5" y="36"/><text fill="#000000" font-family="sans-serif" font-size="14" lengthAdjust="spacing" textLength="44" x="308.5" y="55.9951">Billing</text><rect fill="#E2E2F0" height="30.2969" rx="2.5" ry="2.5" style="stroke:#181818;stroke-width:0.5;" width="58" x="301.5" y="510.4219"/><text fill="#000000" font-family="sans-serif" font-size="14" lengthAdjust="spacing" textLength="44" x="308.5" y="530.417">Billing</text><text fill="#000000" font-family="sans-serif" font-size="14" lengthAdjust="spacing" textLength="68" x="682.5" y="63.9951">Database</text><path d="M701.5,15 C701.5,5 719.5,5 719.5,5 C719.5,5 737.5,5 737.5,15 L737.5,41 C737.5,51 719.5,51 719.5,51 C719.5,51 701.5,51 701.5,41 L701.5,15 " fill="#E2E2F0" style="stroke:#181818;stroke-width:1.5;"/><path d="M701.5,15 C701.5,25 719.5,25 719.5,25 C719.5,25 737.5,25 737.5,15 " fill="none" style="stroke:#181818;stroke-width:1.5;"/><text fill="#000000" font-family="sans-serif" font-size="14" lengthAdjust="spacing" textLength="68" x="682.5" y="523.417">Database</text><path d="M701.5,536.7188 C701.5,526.7188 719.5,526.7188 719.5,526.7188 C719.5,526.7188 737.5,526.7188 737.5,536.7188 L737.5,562.7188 C737.5,572.7188 719.5,572.7188 719.5,572.7188 C719.5,572.7188 701.5,572.7188 701.5,562.7188 L701.5,536.7188 " fill="#E2E2F0" style="stroke:#181818;stroke-width:1.5;"/><path d="M701.5,536.7188 C701.5,546.7188 719.5,546.7188 719.5,546.7188 C719.5,546.7188 737.5,546.7188 737.5,536.7188 " fill="none" style="stroke:#181818;stroke-width:1.5;"/><rect fill="#E2E2F0" height="30.2969" rx="2.5" ry="2.5" style="stroke:#181818;stroke-width:0.5;" width="67" x="766.5" y="36"/><text fill="#000000" font-family="sans-serif" font-size="14" lengthAdjust="spacing" textLength="53" x="773.5" y="55.9951">Worker</text><rect fill="#E2E2F0" height="30.2969" rx="2.5" ry="2.5" style="stroke:#181818;stroke-width:0.5;" width="67" x="766.5" y="510.4219"/><text fill="#000000" font-family="sans-serif" font-size="14" lengthAdjust="spacing" textLength="53" x="773.5" y="530.417">Worker</text><rect fill="#E2E2F0" height="30.2969" rx="2.5" ry="2.5" style="stroke:#181818;stroke-width:0.5;" width="138" x="936" y="36"/><text fill="#000000" font-family="sans-serif" font-size="14" lengthAdjust="spacing" textLength="124" x="943" y="55.9951">PaymentProvider</text><rect fill="#E2E2F0" height="30.2969" rx="2.5" ry="2.5" style="stroke:#181818;stroke-width:0.5;" width="138" x="936" y="510.4219"/><text fill="#000000" font-family="sans-serif" font-size="14" lengthAdjust="spacing" textLength="124" x="943" y="530.417">PaymentProvider</text><polygon fill="#181818" points="318.5,94.4297,328.5,98.4297,318.5,102.4297,322.5,98.4297" style="stroke:#181818;stroke-width:1.0;"/><line style="stroke:#181818;stroke-width:1.0;" x1="33.5" x2="324.5" y1="98.4297" y2="98.4297"/><text fill="#7F7F7F" font-family="sans-serif" font-size="13" lengthAdjust="spacing" textLength="31" x="40.5" y="93.3638">GET:</text><text fill="#000000" font-family="sans-serif" font-size="13" lengthAdjust="spacing" textLength="234" x="79.5" y="93.3638">&#1048;&#1085;&#1080;&#1094;&#1080;&#1080;&#1088;&#1091;&#1077;&#1090; &#1086;&#1073;&#1085;&#1086;&#1074;&#1083;&#1077;&#1085;&#1080;&#1077; &#1087;&#1086;&#1076;&#1087;&#1080;&#1089;&#1082;&#1080;</text><polygon fill="#181818" points="707.5,138.6953,717.5,142.6953,707.5,146.6953,711.5,142.6953" style="stroke:#181818;stroke-width:1.0;"/><line style="stroke:#181818;stroke-width:1.0;" x1="330.5" x2="713.5" y1="142.6953" y2="142.6953"/><text fill="#000000" font-family="sans-serif" font-size="13" lengthAdjust="spacing" textLength="133" x="337.5" y="122.4966">- &#1054;&#1073;&#1085;&#1086;&#1074;&#1083;&#1103;&#1077;&#1090; &#1086;&#1073;&#1098;&#1077;&#1082;&#1090;</text><text fill="#000000" font-family="sans-serif" font-size="13" font-weight="bold" lengthAdjust="spacing" textLength="94" x="474.5" y="122.4966">Subscription</text><text fill="#000000" font-family="sans-serif" font-size="13" lengthAdjust="spacing" textLength="4" x="568.5" y="122.4966">&#160;</text><text fill="#000000" font-family="sans-serif" font-size="13" lengthAdjust="spacing" textLength="118" x="337.5" y="137.6294">- &#1057;&#1086;&#1079;&#1076;&#1072;&#1077;&#1090; &#1086;&#1073;&#1098;&#1077;&#1082;&#1090;</text><text fill="#000000" font-family="sans-serif" font-size="13" font-weight="bold" lengthAdjust="spacing" textLength="53" x="459.5" y="137.6294">Invoice</text><polygon fill="#181818" points="788,167.8281,798,171.8281,788,175.8281,792,171.8281" style="stroke:#181818;stroke-width:1.0;"/><line style="stroke:#181818;stroke-width:1.0;" x1="330.5" x2="794" y1="171.8281" y2="171.8281"/><text fill="#000000" font-family="sans-serif" font-size="13" lengthAdjust="spacing" textLength="293" x="337.5" y="166.7622">&#1057;&#1086;&#1079;&#1076;&#1072;&#1077;&#1090; &#1079;&#1072;&#1076;&#1072;&#1095;&#1091; &#1085;&#1072; &#1087;&#1088;&#1080;&#1077;&#1084; &#1089;&#1090;&#1072;&#1090;&#1091;&#1089;&#1072; &#1087;&#1083;&#1072;&#1090;&#1077;&#1078;&#1072;</text><polygon fill="#181818" points="993,196.9609,1003,200.9609,993,204.9609,997,200.9609" style="stroke:#181818;stroke-width:1.0;"/><line style="stroke:#181818;stroke-width:1.0;" x1="330.5" x2="999" y1="200.9609" y2="200.9609"/><text fill="#7F7F7F" font-family="sans-serif" font-size="13" lengthAdjust="spacing" textLength="39" x="337.5" y="195.895">POST:</text><text fill="#000000" font-family="sans-serif" font-size="13" lengthAdjust="spacing" textLength="112" x="380.5" y="195.895">&#1057;&#1086;&#1079;&#1076;&#1072;&#1077;&#1090; &#1087;&#1083;&#1072;&#1090;&#1077;&#1078;</text><polygon fill="#0000FF" points="811,226.0938,801,230.0938,811,234.0938,807,230.0938" style="stroke:#0000FF;stroke-width:1.0;"/><line style="stroke:#0000FF;stroke-width:1.0;" x1="805" x2="1004" y1="230.0938" y2="230.0938"/><text fill="#000000" font-family="sans-serif" font-size="13" lengthAdjust="spacing" textLength="163" x="817" y="225.0278">pending-&#1089;&#1090;&#1072;&#1090;&#1091;&#1089; &#1087;&#1083;&#1072;&#1090;&#1077;&#1078;&#1072;</text><polygon fill="#181818" points="341.5,255.2266,331.5,259.2266,341.5,263.2266,337.5,259.2266" style="stroke:#181818;stroke-width:1.0;"/><line style="stroke:#181818;stroke-width:1.0;" x1="335.5" x2="799" y1="259.2266" y2="259.2266"/><text fill="#000000" font-family="sans-serif" font-size="13" lengthAdjust="spacing" textLength="190" x="347.5" y="254.1606">&#1054;&#1090;&#1087;&#1088;&#1072;&#1074;&#1083;&#1103;&#1077;&#1090; &#1089;&#1090;&#1072;&#1090;&#1091;&#1089; &#1087;&#1083;&#1072;&#1090;&#1077;&#1078;&#1072;</text><polygon fill="#181818" points="707.5,299.4922,717.5,303.4922,707.5,307.4922,711.5,303.4922" style="stroke:#181818;stroke-width:1.0;"/><line style="stroke:#181818;stroke-width:1.0;" x1="330.5" x2="713.5" y1="303.4922" y2="303.4922"/><text fill="#000000" font-family="sans-serif" font-size="13" lengthAdjust="spacing" textLength="109" x="337.5" y="283.2935">&#1057;&#1086;&#1079;&#1076;&#1072;&#1077;&#1090; &#1086;&#1073;&#1098;&#1077;&#1082;&#1090;</text><text fill="#000000" font-family="sans-serif" font-size="13" font-weight="bold" lengthAdjust="spacing" textLength="67" x="450.5" y="283.2935">Payment</text><text fill="#000000" font-family="sans-serif" font-size="13" lengthAdjust="spacing" textLength="4" x="517.5" y="283.2935">&#160;</text><text fill="#000000" font-family="sans-serif" font-size="13" lengthAdjust="spacing" textLength="135" x="337.5" y="298.4263">&#1089;&#1086; &#1089;&#1090;&#1072;&#1090;&#1091;&#1089;&#1086;&#1084; pending</text><polygon fill="#181818" points="44.5,328.625,34.5,332.625,44.5,336.625,40.5,332.625" style="stroke:#181818;stroke-width:1.0;"/><line style="stroke:#181818;stroke-width:1.0;" x1="38.5" x2="329.5" y1="332.625" y2="332.625"/><text fill="#000000" font-family="sans-serif" font-size="13" lengthAdjust="spacing" textLength="179" x="50.5" y="327.5591">&#1055;&#1077;&#1088;&#1077;&#1076;&#1072;&#1077;&#1090; URL &#1076;&#1083;&#1103; &#1086;&#1087;&#1083;&#1072;&#1090;&#1099;</text><polygon fill="#181818" points="993,357.7578,1003,361.7578,993,365.7578,997,361.7578" style="stroke:#181818;stroke-width:1.0;"/><line style="stroke:#181818;stroke-width:1.0;" x1="33.5" x2="999" y1="361.7578" y2="361.7578"/><text fill="#000000" font-family="sans-serif" font-size="13" lengthAdjust="spacing" textLength="269" x="40.5" y="356.6919">&#1087;&#1086;&#1076;&#1090;&#1074;&#1077;&#1088;&#1078;&#1076;&#1072;&#1077;&#1090; &#1086;&#1087;&#1083;&#1072;&#1090;&#1091; (&#1074;&#1074;&#1086;&#1076;&#1080;&#1090; &#1076;&#1072;&#1085;&#1085;&#1099;&#1077;)</text><polygon fill="#008000" points="811,386.8906,801,390.8906,811,394.8906,807,390.8906" style="stroke:#008000;stroke-width:1.0;"/><line style="stroke:#008000;stroke-width:1.0;" x1="805" x2="1004" y1="390.8906" y2="390.8906"/><text fill="#000000" font-family="sans-serif" font-size="13" lengthAdjust="spacing" textLength="181" x="817" y="385.8247">succeeded-&#1089;&#1090;&#1072;&#1090;&#1091;&#1089; &#1087;&#1083;&#1072;&#1090;&#1077;&#1078;&#1072;</text><polygon fill="#181818" points="341.5,416.0234,331.5,420.0234,341.5,424.0234,337.5,420.0234" style="stroke:#181818;stroke-width:1.0;"/><line style="stroke:#181818;stroke-width:1.0;" x1="335.5" x2="799" y1="420.0234" y2="420.0234"/><text fill="#000000" font-family="sans-serif" font-size="13" lengthAdjust="spacing" textLength="190" x="347.5" y="414.9575">&#1054;&#1090;&#1087;&#1088;&#1072;&#1074;&#1083;&#1103;&#1077;&#1090; &#1089;&#1090;&#1072;&#1090;&#1091;&#1089; &#1087;&#1083;&#1072;&#1090;&#1077;&#1078;&#1072;</text><polygon fill="#181818" points="707.5,460.2891,717.5,464.2891,707.5,468.2891,711.5,464.2891" style="stroke:#181818;stroke-width:1.0;"/><line style="stroke:#181818;stroke-width:1.0;" x1="330.5" x2="713.5" y1="464.2891" y2="464.2891"/><text fill="#000000" font-family="sans-serif" font-size="13" lengthAdjust="spacing" textLength="133" x="337.5" y="444.0903">- &#1054;&#1073;&#1085;&#1086;&#1074;&#1083;&#1103;&#1077;&#1090; &#1086;&#1073;&#1098;&#1077;&#1082;&#1090;</text><text fill="#000000" font-family="sans-serif" font-size="13" font-weight="bold" lengthAdjust="spacing" textLength="67" x="474.5" y="444.0903">Payment</text><text fill="#000000" font-family="sans-serif" font-size="13" lengthAdjust="spacing" textLength="80" x="545.5" y="444.0903">&#1089;&#1086; &#1089;&#1090;&#1072;&#1090;&#1091;&#1089;&#1086;&#1084;</text><text fill="#008000" font-family="sans-serif" font-size="13" lengthAdjust="spacing" textLength="69" x="629.5" y="444.0903">succeeded</text><text fill="#000000" font-family="sans-serif" font-size="13" lengthAdjust="spacing" textLength="4" x="698.5" y="444.0903">&#160;</text><text fill="#000000" font-family="sans-serif" font-size="13" lengthAdjust="spacing" textLength="189" x="337.5" y="459.2231">- &#1054;&#1073;&#1085;&#1086;&#1074;&#1083;&#1103;&#1077;&#1090; &#1089;&#1090;&#1072;&#1090;&#1091;&#1089; &#1086;&#1073;&#1098;&#1077;&#1082;&#1090;&#1072;</text><text fill="#000000" font-family="sans-serif" font-size="13" font-weight="bold" lengthAdjust="spacing" textLength="94" x="530.5" y="459.2231">Subscription</text><polygon fill="#181818" points="44.5,489.4219,34.5,493.4219,44.5,497.4219,40.5,493.4219" style="stroke:#181818;stroke-width:1.0;"/><line style="stroke:#181818;stroke-width:1.0;" x1="38.5" x2="329.5" y1="493.4219" y2="493.4219"/><text fill="#000000" font-family="sans-serif" font-size="13" lengthAdjust="spacing" textLength="173" x="50.5" y="488.356">&#1054;&#1090;&#1076;&#1072;&#1077;&#1090; URL &#1076;&#1083;&#1103; &#1074;&#1086;&#1079;&#1074;&#1088;&#1072;&#1090;&#1072;</text><!--SRC=[lLFBRjD05DtxAwxK3LYAM5QA80iUGfKg4T4Y5i32ZsarmhL7TXB4BaqaaEY2BQkY_a6mI6iL4dxXpXznnd6SSM9Lh4Yan3Ftt7FEdBbMNZgGWLHUFA0daHJugpzUHiDCf8woC8zb5CdurCO0CfA1S49luFbU9ipsK-kvWeK-DPXU9-bxaJRKFfHR3LJV-tW6K_qq6SaGSA2KSXp76ADERotUfOSd2U114YNfextz4_FjFNzsZC83K-aHV-C55_eJ5_WTwodFzOHuoJ-mlUISV_7S07XE_0SRF_5Rw7E-vOASIiK8XdwNEiINcpxzjQRINq1oYuNh7WtzB4Yb6iWaTbrw6wFf2fWRCC_Q6WxYKG8DrxNLLebqTrfly825_god11ypUDPZOvv_apxN4vGcUWhxfeAZOOdQDSziSgNQO-k_E3hkrh5jALjiZbBKURFdHqFnRcDLYJZ4X7Hi6zicLjZ6_V4bgkOGColJkpYsxkJkSAinAYy2gIoR8IsHMcNRfZKp1kBl81o3QKtzwkKXOG6FHgKofI_gaJInhaO84ddPV6txMdTCwHxAUJbhXIaPp88N-eBdzwjiJrCXOYlSR1W4GeGY_D_n_il8Rq9kZzYUjV9WlVeuwsahNvDTeQPHInNplVEgjLoXENpRzUNbpEGc5iFr5m00]--></g></svg>